<?xml version="1.0" encoding="UTF-8" standalone="no"?>
<!DOCTYPE svg PUBLIC "-//W3C//DTD SVG 1.1//EN" "http://www.w3.org/Graphics/SVG/1.1/DTD/svg11.dtd">
<svg width="100%" height="100%" viewBox="0 0 26 26" version="1.1" xmlns="http://www.w3.org/2000/svg" xmlns:xlink="http://www.w3.org/1999/xlink" xml:space="preserve" xmlns:serif="http://www.serif.com/" style="fill-rule:evenodd;clip-rule:evenodd;stroke-linejoin:round;stroke-miterlimit:1.41421;">
    <g transform="matrix(1,0,0,1,-1092.08,-23.9045)">
        <g transform="matrix(1,0,0,3.06807,0,0)">
            <g transform="matrix(0.0625635,0,0,0.0203918,1092.08,7.78322)">
                <path d="M204.801,0.4C91.688,0.4 0,92.087 0,205.201C0,318.314 91.688,410.002 204.801,410.002C317.914,410.002 409.602,318.314 409.602,205.201C409.602,92.087 317.914,0.4 204.801,0.4ZM204.801,378.002C109.363,378.002 32,300.638 32,205.201C32,109.763 109.363,32.4 204.801,32.4C300.238,32.4 377.602,109.763 377.602,205.201C377.602,300.638 300.238,378.002 204.801,378.002Z" style="fill:rgb(2,88,1);fill-rule:nonzero;"/>
                <path d="M253.398,173.849L217.773,173.849L217.773,147.849C217.773,139.873 226.023,138.025 229.875,138.025L252.887,138.025L252.887,102.939L226.512,102.798C190.527,102.798 182.312,128.962 182.312,145.736L182.312,173.849L156.199,173.849L156.199,210.002L182.312,210.002L182.312,307.599L217.773,307.599L217.773,210.002L247.898,210.002L253.398,173.849Z" style="fill:rgb(2,88,1);"/>
            </g>
        </g>
    </g>
</svg>
