<?xml version="1.0" encoding="UTF-8" standalone="no"?>
<!DOCTYPE svg PUBLIC "-//W3C//DTD SVG 1.1//EN" "http://www.w3.org/Graphics/SVG/1.1/DTD/svg11.dtd">
<svg width="100%" height="100%" viewBox="0 0 26 26" version="1.1" xmlns="http://www.w3.org/2000/svg" xmlns:xlink="http://www.w3.org/1999/xlink" xml:space="preserve" xmlns:serif="http://www.serif.com/" style="fill-rule:evenodd;clip-rule:evenodd;stroke-linejoin:round;stroke-miterlimit:1.41421;">
    <g transform="matrix(1,0,0,1,-1005.31,-24.2316)">
        <g transform="matrix(1,0,0,3.06807,0,0)">
            <g transform="matrix(0.101699,0,0,0.0331476,1005.31,7.88879)">
                <path d="M125.859,0.278C56.461,0.278 0,56.739 0,126.138C0,195.54 56.461,252.001 125.859,252.001C195.262,252.001 251.723,195.54 251.723,126.138C251.723,56.739 195.262,0.278 125.859,0.278ZM125.859,237.599C64.402,237.599 14.398,187.599 14.398,126.138C14.398,64.681 64.402,14.677 125.859,14.677C187.32,14.677 237.32,64.681 237.32,126.138C237.32,187.599 187.32,237.599 125.859,237.599Z" style="fill:rgb(2,88,1);fill-rule:nonzero;"/>
                <path d="M171.695,64.54L80.027,64.54C71.645,64.54 64.828,71.357 64.828,79.739L64.828,172.54C64.828,180.919 71.645,187.739 80.027,187.739L171.695,187.739C180.074,187.739 186.895,180.919 186.895,172.54L186.895,79.739C186.895,71.357 180.074,64.54 171.695,64.54ZM172.496,172.54C172.496,172.982 172.137,173.341 171.695,173.341L80.027,173.341C79.586,173.341 79.227,172.982 79.227,172.54L79.227,79.739C79.227,79.298 79.586,78.939 80.027,78.939L171.695,78.939C172.137,78.939 172.496,79.298 172.496,79.739L172.496,172.54Z" style="fill:rgb(2,88,1);fill-rule:nonzero;"/>
                <rect x="146.867" y="89.728" width="16.492" height="15.129" style="fill:rgb(2,88,1);fill-rule:nonzero;"/>
                <path d="M142.121,132.235C142.121,141.216 134.84,148.493 125.859,148.493C116.883,148.493 109.602,141.216 109.602,132.235C109.602,123.256 116.883,115.978 125.859,115.978C134.84,115.978 142.121,123.256 142.121,132.235Z" style="fill:rgb(2,88,1);fill-rule:nonzero;"/>
                <path d="M151.797,132.165C151.797,146.485 140.184,158.099 125.863,158.099C111.539,158.099 99.926,146.485 99.926,132.165L99.961,120.607L88.363,120.607L88.363,163.614L163.359,163.614L163.359,120.607L151.855,120.607L151.797,132.165Z" style="fill:rgb(2,88,1);fill-rule:nonzero;"/>
            </g>
        </g>
    </g>
</svg>
