<?xml version="1.0" encoding="UTF-8" standalone="no"?><!DOCTYPE svg PUBLIC "-//W3C//DTD SVG 1.1//EN" "http://www.w3.org/Graphics/SVG/1.1/DTD/svg11.dtd"><svg width="100%" height="100%" viewBox="0 0 73 69" version="1.1" xmlns="http://www.w3.org/2000/svg" xmlns:xlink="http://www.w3.org/1999/xlink" xml:space="preserve" xmlns:serif="http://www.serif.com/" style="fill-rule:evenodd;clip-rule:evenodd;stroke-linejoin:round;stroke-miterlimit:1.41421;"><g><path d="M31.041,68.829l-0.853,-0.638c0,0 -0.748,-0.373 -2.542,-6.43c-1.795,-6.056 -0.69,-12.344 0.889,-17.034c1.579,-4.689 7.759,-10.069 7.759,-10.069c0,0 -0.735,-0.919 -1.684,-3.522c-0.95,-2.603 -0.05,-7.24 -0.05,-7.24c0,0 1.654,6.646 4.227,9.954c2.572,3.307 9.883,3.428 9.883,3.428l-7.362,0.103l0.767,6.097l-4.857,4.495c0,0 4.141,7.08 4.827,8.746c0.686,1.666 2.053,1.405 2.053,1.405c0,0 5.084,-1.347 6.4,-1.623c1.317,-0.275 2.94,-1.715 2.94,-1.715l0.184,-2.185c0,0 0.526,-1.436 3.977,-7.082c3.45,-5.647 2.863,-9.156 2.863,-9.156l2.121,-1.818l0.296,-7.471l5.555,1.302c0.358,1.991 0.545,4.041 0.545,6.134c0,19.036 -15.454,34.49 -34.489,34.49c-1.164,0 -2.315,-0.058 -3.449,-0.171Zm2.623,-68.798c0.274,-0.007 0.55,-0.01 0.826,-0.01c3.812,0 7.481,0.62 10.911,1.765c-0.892,0.228 -4.001,1.122 -5.539,2.842c-1.807,2.021 -1.776,2.419 -1.776,2.419c0,0 6.094,-4.511 10.305,-3.515c1.301,0.307 2.533,0.772 3.614,1.269c1.253,0.739 2.454,1.557 3.599,2.445c-1.17,0.204 -4.156,0.834 -5.387,2.097c-1.549,1.588 -1.921,1.96 -1.921,1.96c0,0 5.966,-3.801 10.36,-1.39c1.949,1.915 3.671,4.058 5.123,6.388c-1.714,-0.501 -6.367,-1.562 -10.221,0.275c-4.823,2.299 -8.468,5.496 -10.991,5.72c-2.524,0.224 -5.776,-0.953 -5.776,-0.953c0,0 3.724,-1.75 5.653,-3.769c1.929,-2.018 2.691,-3.723 2.691,-3.723c0,0 -3.805,4.097 -7.286,5.712c-3.481,1.615 -5.634,1.794 -5.634,1.794c0,0 1.446,-3.297 1.553,-6.024c0.108,-2.728 0.144,-4.522 0.144,-4.522c0,0 -1.619,7.429 -3.699,11.413c-2.082,3.983 -3.509,5.411 -5.844,7.364c-2.335,1.952 -7.618,4.019 -7.618,4.019c0,0 -1.475,-2.468 -0.924,-6.418c0.551,-3.951 1.225,-5.451 1.225,-5.451c0,0 -5.505,7.95 -1.991,15.502c3.514,7.552 7.241,13.482 5.686,19.464c-1.555,5.981 -3.41,7.297 -3.41,7.297l-0.26,0.281c-10.213,-5.991 -17.077,-17.086 -17.077,-29.772c0,-15.866 10.737,-29.244 25.335,-33.259c-1.385,0.988 -3.599,2.822 -5.644,5.626c-3.295,4.517 -3.908,7.579 -3.908,7.579c0,0 2.208,-4.676 5.944,-7.922c3.215,-2.794 7.429,-5.905 11.937,-6.503Zm16.32,52.58c-0.025,-0.206 -0.159,-0.382 -0.35,-0.461c-0.191,-0.08 -0.41,-0.05 -0.574,0.077c-0.719,0.558 -1.757,1.363 -2.384,1.849c-0.134,0.104 -0.215,0.263 -0.222,0.433c-0.007,0.17 0.062,0.334 0.188,0.448c0.185,0.167 0.388,0.352 0.554,0.502c0.194,0.177 0.484,0.199 0.703,0.055c0.527,-0.347 1.479,-0.974 1.962,-1.292c0.183,-0.121 0.282,-0.334 0.255,-0.552c-0.035,-0.279 -0.085,-0.683 -0.132,-1.059Zm3.25,-22.742c0,0 0.903,2.877 0.669,6.925c-0.234,4.047 -1.171,7.058 -1.171,7.058l2.844,-8.296l1.94,-0.569l-4.282,-5.118Zm7.112,-10.891c0,0 0.167,3.471 3.847,5.269c3.679,1.798 7.819,2.718 7.819,2.718c0,0 -2.191,-3.956 -4.767,-5.695c-2.576,-1.74 -6.899,-2.292 -6.899,-2.292Z" style="fill:#f4f4f4;"/></g></svg>